<svg id="ccgcdgec" class="css-88gl6m" preserveAspectRatio="xMidYMid meet" viewBox="0 0 80.36056910569106 83.89584921239839" xmlns="http://www.w3.org/2000/svg" xmlns:xlink="http://www.w3.org/1999/xlink" style="max-height: 500px" width="80.36056910569106" height="83.89584921239839"><defs id="SvgjsDefs3861"/><g fill="#0092CA" transform="matrix(-0.9959349593495935,0,0,0.9959349593495935,89.6341463414634,-7.967479674796749)" id="SvgjsG3862"><g fill="#0092CA" transform="translate(0,-952.36218)" xmlns="http://www.w3.org/2000/svg"><path overflow="visible" display="inline" visibility="visible" stroke="none" fill="#0092CA" transform="translate(0,952.36218)" d="M 50 8 L 34 14.40625 L 70 29.8125 L 87.28125 22.90625 L 75 18 L 50 8 z M 28.78125 16.46875 L 12.71875 22.90625 L 50 37.8125 L 64.78125 31.90625 L 28.78125 16.46875 z M 10 26.15625 L 10 74 L 48 91.125 L 48 41.34375 L 10 26.15625 z M 90 26.15625 L 72 33.34375 L 72 48 A 2.0001995 2.0001995 0 1 1 68 48 L 68 34.96875 L 52 41.34375 L 52 91.125 L 68 83.90625 L 68 67 A 2.0001995 2.0001995 0 0 1 69.78125 64.96875 A 2.0001995 2.0001995 0 0 1 72 67 L 72 82.125 L 90 74 L 90 26.15625 z" style="color:;enable-background:accumulate;"/></g></g><g fill="#545454" transform="matrix(3.257322392565685,0,0,3.257322392565685,99.34853536616563,0.08472839410108435)" id="SvgjsG3863"><path fill="#545454" d="M3.38 18.2 l-0.26 1.8 l-2.92 0 l2.62 -14.5 l3.1 0 l2.62 14.5 l-2.92 0 l-0.26 -1.8 l-1.98 0 z M3.7 15.9 l1.34 0 l-0.66 -5.14 z M10.610000000000001 20 l-0.51996 -2.7 l3.12 0 c0.22666 0 0.34 -0.1 0.34 -0.3 l0 -2.64 c0 -0.2 -0.04 -0.32 -0.12 -0.36 s-0.22 -0.06 -0.42 -0.06 l-1.5 0 c-0.21334 0 -0.41668 -0.01666 -0.61002 -0.05 s-0.36668 -0.11 -0.52002 -0.23 s-0.27334 -0.28666 -0.36 -0.5 s-0.13 -0.5 -0.13 -0.86 l0 -4.92 c0 -0.57334 0.15666 -1.03 0.47 -1.37 s0.81 -0.51 1.49 -0.51 l4 0 l0.5 2.7 l-3.28 0 c-0.24 0 -0.36 0.10666 -0.36 0.32 l0 2.64 c0 0.14666 0.03666 0.24666 0.11 0.3 s0.18334 0.08 0.33 0.08 l1.82 0 c0.46666 0 0.82332 0.11 1.07 0.33 s0.37 0.60334 0.37 1.15 l0 4.78 c0 0.8 -0.16334 1.3667 -0.49 1.7 s-0.90332 0.5 -1.73 0.5 l-3.58 0 z M20.92 20 c-0.84 0 -1.4267 -0.17334 -1.76 -0.52 s-0.5 -0.92 -0.5 -1.72 l0 -10.48 c0 -0.57334 0.16334 -1.0133 0.49 -1.32 s0.73 -0.46 1.21 -0.46 l3.82 0 l0.5 2.7 l-2.78 0 c-0.17334 0 -0.26 0.09334 -0.26 0.28 l0 8.54 c0 0.18666 0.08666 0.28 0.26 0.28 l2.78 0 l-0.52 2.7 l-3.24 0 z M26.730000000000004 5.5 l5.64 0 l0.5 2.7 l-3.16 0 l0 3.44 l2.4 0 l0 2.5 l-2.4 0 l0 3.16 l3.04 0 l-0.5 2.7 l-5.52 0 l0 -14.5 z M34.92000000000001 5.5 l2.76 0 l1.48 5.82 l0 -5.82 l2.98 0 l0 14.5 l-2.98 0 l-1.56 -6.06 l0 6.06 l-2.68 0 l0 -14.5 z M47.27 8.04 l0 9.42 l1.36 0 c0.12 0 0.19666 -0.02334 0.23 -0.07 s0.05 -0.12332 0.05 -0.22998 l0 -8.84 c0 -0.18666 -0.08666 -0.28 -0.26 -0.28 l-1.38 0 z M51.790000000000006 17.759999999999998 c0 0.8 -0.16666 1.3733 -0.5 1.72 s-0.92 0.52 -1.76 0.52 l-5.14 0 l0 -14.5 l5.68 0 c0.57334 0 1.0033 0.16 1.29 0.48 s0.43 0.74666 0.43 1.28 l0 10.5 z M57.59 5.5 l5.64 0 l0.5 2.7 l-3.16 0 l0 3.44 l2.4 0 l0 2.5 l-2.4 0 l0 5.86 l-2.98 0 l0 -14.5 z M68.56 8.04 l0.000019531 3.8 l1.36 0 c0.10666 0 0.19332 -0.03 0.25998 -0.09 s0.1 -0.15666 0.1 -0.29 l0 -3.14 c0 -0.18666 -0.08666 -0.28 -0.26 -0.28 l-1.46 0 z M70.32 14.46 c0 -0.16 -0.04 -0.27002 -0.12 -0.33002 s-0.18666 -0.09 -0.32 -0.09 l-1.32 0 l0 3.42 l1.46 0 c0.12 0 0.2 -0.02334 0.24 -0.07 s0.06 -0.12332 0.06 -0.22998 l0 -2.7 z M73.06 11.24 c0 0.36 -0.07 0.67 -0.21 0.93 s-0.40334 0.44334 -0.79 0.55 c0.4 0.02666 0.69 0.16666 0.87 0.42 s0.27 0.54 0.27 0.86 l0 3.76 c0 0.8 -0.16666 1.3733 -0.5 1.72 s-0.92 0.52 -1.76 0.52 l-5.26 0 l0 -14.5 l5.66 0 c0.57334 0 1.0033 0.16 1.29 0.48 s0.43 0.74666 0.43 1.28 l0 3.98 z M78.02999999999999 18.2 l-0.26 1.8 l-2.92 0 l2.62 -14.5 l3.1 0 l2.62 14.5 l-2.92 0 l-0.26 -1.8 l-1.98 0 z M78.35 15.9 l1.34 0 l-0.66 -5.14 z"/></g></svg>